<?xml version="1.0" encoding="UTF-8"?>
<svg width="926px" height="150px" viewBox="0 0 926 150" version="1.1" xmlns="http://www.w3.org/2000/svg" xmlns:xlink="http://www.w3.org/1999/xlink">
    <title>embeddedworld-logoheader@1x</title>
    <defs>
        <path d="M0,51.2752039 L0,48.9425216 C0,22.0756071 17.9112764,1.07872866 43.7405306,0.03833046 C44.3948863,0.01368945 45.0519799,0 45.7063357,0 C48.7672967,0 51.8173061,0.28474056 54.8262472,0.82958067 L54.8262472,3.16773873 C51.8173061,2.62563651 48.7672967,2.34089595 45.7063357,2.34089595 C45.0519799,2.34089595 44.3948863,2.3545854 43.7405306,2.37922641 C17.9112764,3.41688672 0,24.416503 0,51.2752039 Z" id="path-1"></path>
        <path d="M0,2.34637173 L0,9.72693925e-15 C0,4.63250988 0.41615928,9.40739004 1.29228408,14.2644069 C8.39710863,53.9473846 42.9821351,85.1292138 79.2564397,85.1292138 C80.1079235,85.1292138 80.9566694,85.1127864 81.8108911,85.0826696 C107.152801,84.0723882 126.468615,67.9078857 133.915676,44.8685413 L133.915676,47.2012236 C126.468615,70.2515195 107.152801,86.4078084 81.8108911,87.4263035 C80.9566694,87.4564203 80.1079235,87.4755855 79.2564397,87.4755855 C42.9821351,87.4755855 8.39710863,56.2882805 1.29228408,16.6053029 C0.41615928,11.7400723 0,6.97340583 0,2.34637173 Z" id="path-3"></path>
    </defs>
    <g id="Embedded-World" stroke="none" stroke-width="1" fill="none" fill-rule="evenodd">
        <g id="Hubana_Styleguide-Copy" transform="translate(-141.000000, -199.000000)">
            <g id="embeddedworld-logoheader" transform="translate(141.000000, 199.000000)">
                <polygon id="Path" fill="#231F20" fill-rule="nonzero" points="195.263577 107.081616 217.968899 107.081616 217.968899 110.720272 199.458024 110.720272 199.458024 118.909301 217.418583 118.909301 217.418583 122.550694 199.458024 122.550694 199.458024 131.689771 218.365893 131.689771 218.365893 135.325689 195.263577 135.325689"></polygon>
                <polygon id="Path" fill="#231F20" fill-rule="nonzero" points="237.826815 114.597124 243.089039 114.597124 234.385287 124.60685 243.721492 135.325689 238.185478 135.325689 231.655611 127.454255 225.090151 135.325689 219.868994 135.325689 229.084732 124.60685 220.539777 114.597124 225.919731 114.597124 231.814408 121.718376"></polygon>
                <path d="M245.936445,106.843419 L249.889958,106.843419 L249.889958,117.723794 L249.969357,117.723794 C251.828384,114.83532 255.113852,113.88801 258.078987,113.88801 C263.061947,113.88801 266.782739,116.020827 266.782739,121.203652 L266.782739,135.325689 L262.826488,135.325689 L262.826488,121.997641 C262.826488,118.947631 260.926393,117.209071 256.693615,117.209071 C253.093289,117.209071 249.889958,119.303557 249.889958,123.377537 L249.889958,135.325689 L245.936445,135.325689 L245.936445,106.843419 Z" id="Path" fill="#231F20" fill-rule="nonzero"></path>
                <path d="M271.606902,114.597124 L275.563153,114.597124 L275.563153,135.325689 L271.606902,135.325689 L271.606902,114.597124 Z M271.606902,106.843419 L275.563153,106.843419 L275.563153,111.193927 L271.606902,111.193927 L271.606902,106.843419 Z" id="Shape" fill="#231F20" fill-rule="nonzero"></path>
                <path d="M291.782413,117.444529 C287.152641,117.444529 284.10537,120.333003 284.10537,125.080505 C284.10537,128.995687 286.402459,132.71648 291.782413,132.71648 C297.121299,132.71648 299.37732,128.995687 299.37732,125.080505 C299.37732,120.333003 296.368379,117.444529 291.782413,117.444529 Z M280.390053,106.843419 L284.343566,106.843419 L284.343566,117.723794 L284.422965,117.723794 C286.005465,115.232314 289.211534,114.123469 292.297136,114.123469 C298.545001,114.123469 303.56903,118.120788 303.56903,125.080505 C303.56903,132.042959 298.545001,136.03754 292.297136,136.03754 C289.249865,136.03754 285.967135,134.852034 284.422965,132.675412 L284.343566,132.675412 L284.343566,135.325689 L280.390053,135.325689 L280.390053,106.843419 Z" id="Shape" fill="#231F20" fill-rule="nonzero"></path>
                <path d="M307.48695,114.597124 L311.440463,114.597124 L311.440463,135.325689 L307.48695,135.325689 L307.48695,114.597124 Z M307.48695,106.843419 L311.440463,106.843419 L311.440463,111.193927 L307.48695,111.193927 L307.48695,106.843419 Z" id="Shape" fill="#231F20" fill-rule="nonzero"></path>
                <path d="M318.005923,108.228792 L321.962175,108.228792 L321.962175,114.597124 L327.895182,114.597124 L327.895182,117.682726 L321.962175,117.682726 L321.962175,130.460458 C321.962175,132.122358 323.150419,132.71648 325.168244,132.71648 C326.077223,132.71648 326.986203,132.596013 327.895182,132.439953 L327.895182,135.761014 C326.550878,135.99921 325.088845,136.03754 323.465276,136.03754 C319.588424,136.03754 318.005923,134.140183 318.005923,131.131242 L318.005923,117.682726 L313.734815,117.682726 L313.734815,114.597124 L318.005923,114.597124 L318.005923,108.228792 Z" id="Path" fill="#231F20" fill-rule="nonzero"></path>
                <path d="M330.901385,114.597124 L334.857636,114.597124 L334.857636,135.325689 L330.901385,135.325689 L330.901385,114.597124 Z M330.901385,106.843419 L334.857636,106.843419 L334.857636,111.193927 L330.901385,111.193927 L330.901385,106.843419 Z" id="Shape" fill="#231F20" fill-rule="nonzero"></path>
                <path d="M350.797632,117.209071 C345.06449,117.209071 342.967267,121.203652 342.967267,124.962775 C342.967267,128.71916 345.06449,132.71648 350.797632,132.71648 C356.536249,132.71648 358.630735,128.71916 358.630735,124.962775 C358.630735,121.203652 356.536249,117.209071 350.797632,117.209071 Z M350.797632,113.88801 C358.868932,113.88801 362.822445,118.988699 362.822445,124.962775 C362.822445,130.934113 358.868932,136.03754 350.797632,136.03754 C342.72907,136.03754 338.772819,130.934113 338.772819,124.962775 C338.772819,118.988699 342.72907,113.88801 350.797632,113.88801 Z" id="Shape" fill="#231F20" fill-rule="nonzero"></path>
                <path d="M366.740365,114.597124 L370.696617,114.597124 L370.696617,117.723794 L370.773277,117.723794 C372.635043,114.83532 375.917773,113.88801 378.882908,113.88801 C383.868605,113.88801 387.58666,116.020827 387.58666,121.203652 L387.58666,135.325689 L383.630409,135.325689 L383.630409,121.997641 C383.630409,118.947631 381.733051,117.209071 377.500273,117.209071 C373.899948,117.209071 370.696617,119.303557 370.696617,123.377537 L370.696617,135.325689 L366.740365,135.325689 L366.740365,114.597124 Z" id="Path" fill="#231F20" fill-rule="nonzero"></path>
                <path d="M403.96198,117.682726 C406.927115,116.456151 408.03596,114.873651 408.03596,113.449948 C408.03596,111.829117 406.612258,110.405414 404.632763,110.405414 C402.102953,110.405414 400.994107,111.829117 400.994107,113.25282 C400.994107,114.638192 401.985223,115.864767 403.96198,117.682726 Z M402.617676,121.403518 C398.226101,123.259808 397.199392,125.236564 397.199392,127.492586 C397.199392,129.786938 398.817485,132.71648 404.356236,132.71648 C407.126981,132.71648 409.933318,132.042959 411.595217,129.828006 L402.617676,121.403518 Z M414.207164,132.122358 C412.07161,134.731567 408.115359,136.03754 404.161846,136.03754 C395.655222,136.03754 393.004944,131.369438 393.004944,127.610315 C393.004944,124.092126 395.09943,121.003786 400.361655,119.185827 C397.870175,116.973612 397.276053,115.035186 397.276053,113.449948 C397.276053,109.655232 399.92633,107.081616 404.594433,107.081616 C409.024339,107.081616 411.754015,109.849623 411.754015,113.214489 C411.754015,115.426705 410.448041,118.120788 406.294662,119.77995 L413.77184,126.701336 C414.56309,125.3981 414.919016,124.250924 415.077813,122.312498 L418.795868,122.312498 C418.716469,124.486383 418.163415,126.819065 416.463186,129.192815 L423.108045,135.325689 L417.607624,135.325689 L414.207164,132.122358 Z" id="Shape" fill="#231F20" fill-rule="nonzero"></path>
                <path d="M448.501975,117.247401 C447.869522,113.334957 444.78392,110.011158 438.850912,110.011158 C432.164985,110.011158 427.932207,113.844204 427.932207,121.559578 C427.932207,126.901201 430.820681,132.396147 438.615454,132.396147 C443.557345,132.396147 447.316468,130.025134 448.501975,124.527451 L452.696422,124.527451 C452.022901,130.778054 446.642947,136.03754 438.574385,136.03754 C431.453134,136.03754 423.740497,132.122358 423.740497,121.124254 C423.740497,112.894156 428.882255,106.372502 438.533317,106.372502 C444.189798,106.372502 451.981833,108.781845 452.696422,117.247401 L448.501975,117.247401 Z" id="Path" fill="#231F20" fill-rule="nonzero"></path>
                <path d="M468.003965,117.209071 C462.268085,117.209071 460.170862,121.203652 460.170862,124.962775 C460.170862,128.71916 462.268085,132.71648 468.003965,132.71648 C473.739845,132.71648 475.83433,128.71916 475.83433,124.962775 C475.83433,121.203652 473.739845,117.209071 468.003965,117.209071 Z M468.003965,113.88801 C476.072527,113.88801 480.028778,118.988699 480.028778,124.962775 C480.028778,130.934113 476.072527,136.03754 468.003965,136.03754 C459.932665,136.03754 455.979152,130.934113 455.979152,124.962775 C455.979152,118.988699 459.932665,113.88801 468.003965,113.88801 Z" id="Shape" fill="#231F20" fill-rule="nonzero"></path>
                <path d="M483.943961,114.597124 L487.900212,114.597124 L487.900212,117.723794 L487.97961,117.723794 C489.838638,114.83532 493.121368,113.88801 496.089241,113.88801 C501.0722,113.88801 504.790255,116.020827 504.790255,121.203652 L504.790255,135.325689 L500.834004,135.325689 L500.834004,121.997641 C500.834004,118.947631 498.936646,117.209071 494.703868,117.209071 C491.103543,117.209071 487.900212,119.303557 487.900212,123.377537 L487.900212,135.325689 L483.943961,135.325689 L483.943961,114.597124 Z" id="Path" fill="#231F20" fill-rule="nonzero"></path>
                <path d="M510.840992,111.511522 C510.840992,107.675738 513.214743,106.372502 517.212062,106.372502 C518.435899,106.372502 519.503676,106.566892 520.650852,106.684622 L520.650852,109.772962 C519.90067,109.731893 519.14775,109.690825 518.435899,109.690825 C515.86502,109.690825 514.797243,110.011158 514.797243,111.711388 L514.797243,114.597124 L520.650852,114.597124 L520.650852,117.682726 L514.797243,117.682726 L514.797243,135.325689 L510.840992,135.325689 L510.840992,117.682726 L506.610952,117.682726 L506.610952,114.597124 L510.840992,114.597124 L510.840992,111.511522 Z" id="Path" fill="#231F20" fill-rule="nonzero"></path>
                <path d="M540.944093,123.06268 C540.34997,119.303557 537.423166,117.209071 533.705111,117.209071 C530.066456,117.209071 526.780988,119.344625 526.189603,123.06268 L540.944093,123.06268 Z M526.069136,126.148282 C526.386731,130.422128 530.184185,132.71648 533.705111,132.71648 C535.958395,132.71648 539.046735,131.96356 540.388301,129.036756 L544.582748,129.036756 C542.603254,134.019716 537.978958,136.03754 533.902239,136.03754 C525.833678,136.03754 521.877427,130.934113 521.877427,124.962775 C521.877427,118.988699 525.833678,113.88801 533.902239,113.88801 C539.361592,113.88801 545.135802,117.050273 545.135802,125.633558 L545.135802,126.148282 L526.069136,126.148282 Z" id="Shape" fill="#231F20" fill-rule="nonzero"></path>
                <path d="M549.171452,114.597124 L553.124965,114.597124 L553.124965,118.394577 L553.207102,118.394577 C555.066129,115.111847 557.716407,113.88801 560.328354,113.88801 C561.313994,113.88801 561.828717,113.923603 562.581637,114.123469 L562.581637,118.394577 C561.593259,118.156381 560.840339,118.000321 559.772562,118.000321 C555.854641,118.000321 553.124965,120.294673 553.124965,124.803978 L553.124965,135.325689 L549.171452,135.325689 L549.171452,114.597124 Z" id="Path" fill="#231F20" fill-rule="nonzero"></path>
                <path d="M583.427932,123.06268 C582.831072,119.303557 579.907005,117.209071 576.186213,117.209071 C572.547557,117.209071 569.264827,119.344625 568.670705,123.06268 L583.427932,123.06268 Z M568.552975,126.148282 C568.870571,130.422128 572.665286,132.71648 576.186213,132.71648 C578.442234,132.71648 581.527836,131.96356 582.87214,129.036756 L587.06385,129.036756 C585.089831,134.019716 580.460059,136.03754 576.383341,136.03754 C568.317517,136.03754 564.358528,130.934113 564.358528,124.962775 C564.358528,118.988699 568.317517,113.88801 576.383341,113.88801 C581.845431,113.88801 587.619641,117.050273 587.619641,125.633558 L587.619641,126.148282 L568.552975,126.148282 Z" id="Shape" fill="#231F20" fill-rule="nonzero"></path>
                <path d="M591.655291,114.597124 L595.608804,114.597124 L595.608804,117.723794 L595.688203,117.723794 C597.54723,114.83532 600.832698,113.88801 603.797833,113.88801 C608.780793,113.88801 612.501586,116.020827 612.501586,121.203652 L612.501586,135.325689 L608.545335,135.325689 L608.545335,121.997641 C608.545335,118.947631 606.647977,117.209071 602.415199,117.209071 C598.814873,117.209071 595.608804,119.303557 595.608804,123.377537 L595.608804,135.325689 L591.655291,135.325689 L591.655291,114.597124 Z" id="Path" fill="#231F20" fill-rule="nonzero"></path>
                <path d="M638.489637,127.730782 C636.830476,133.943055 633.068615,136.03754 627.691399,136.03754 C619.461302,136.03754 616.416768,130.460458 616.416768,125.080505 C616.416768,118.947631 620.175891,113.88801 627.650331,113.88801 C633.189082,113.88801 637.580658,116.376752 638.410239,121.521248 L634.215791,121.521248 C633.742136,118.829902 631.606582,117.209071 627.926858,117.209071 C622.864499,117.209071 620.608478,120.530131 620.608478,124.962775 C620.608478,129.392681 622.864499,132.71648 627.926858,132.71648 C631.486115,132.71648 633.427279,131.17231 634.297928,127.730782 L638.489637,127.730782 Z" id="Path" fill="#231F20" fill-rule="nonzero"></path>
                <path d="M660.403709,123.06268 C659.809587,119.303557 656.88552,117.209071 653.164728,117.209071 C649.526072,117.209071 646.243342,119.344625 645.64922,123.06268 L660.403709,123.06268 Z M645.531491,126.148282 C645.846348,130.422128 649.643801,132.71648 653.164728,132.71648 C655.420749,132.71648 658.506351,131.96356 659.850655,129.036756 L664.042365,129.036756 C662.065608,134.019716 657.435836,136.03754 653.361856,136.03754 C645.293294,136.03754 641.337043,130.934113 641.337043,124.962775 C641.337043,118.988699 645.293294,113.88801 653.361856,113.88801 C658.821209,113.88801 664.598156,117.050273 664.598156,125.633558 L664.598156,126.148282 L645.531491,126.148282 Z" id="Shape" fill="#231F20" fill-rule="nonzero"></path>
                <path d="M210.176864,43.0697476 C208.241176,43.0697476 207.271962,44.1868067 207.271962,46.494848 L207.271962,49.7638886 L227.535086,49.7638886 C229.147704,49.7638886 229.985498,48.5674307 229.985498,46.2566516 C229.985498,44.10467 229.147704,43.0697476 227.535086,43.0697476 L210.176864,43.0697476 Z M242.63455,48.5674307 C242.63455,55.6585658 239.406577,58.9248686 232.696009,58.9248686 L207.271962,58.9248686 L207.271962,61.950237 C207.271962,64.0228198 208.241176,65.0604801 210.176864,65.0604801 L241.988408,65.0604801 L241.988408,78.2023521 L209.07897,78.2023521 C199.4635,78.2023521 194.622911,73.4219961 194.622911,63.7846233 L194.622911,43.9486103 C194.622911,35.1024877 199.4635,30.7218637 209.07897,30.7218637 L232.696009,30.7218637 C239.343606,30.7218637 242.63455,34.3878984 242.63455,41.7966287 L242.63455,48.5674307 Z" id="Shape" fill="#ED1B2E" fill-rule="nonzero"></path>
                <path d="M317.611667,78.2023521 L304.965353,78.2023521 L304.965353,46.1772527 C304.965353,44.10467 303.99614,43.0697476 302.060452,43.0697476 L290.317642,43.0697476 L290.317642,78.2023521 L277.602881,78.2023521 L277.602881,43.0697476 L262.88946,43.0697476 L262.88946,78.2023521 L250.306117,78.2023521 L250.306117,30.7218637 L302.060452,30.7218637 C312.448007,30.7218637 317.611667,35.9019516 317.611667,46.3387883 L317.611667,78.2023521 Z" id="Path" fill="#ED1B2E" fill-rule="nonzero"></path>
                <path d="M337.929549,43.0697476 L337.929549,61.8735761 C337.929549,64.0228198 338.896024,65.0604801 340.897422,65.0604801 L360.837475,65.0604801 C362.773163,65.0604801 363.739638,64.0228198 363.739638,61.8735761 L363.739638,46.1772527 C363.739638,44.10467 362.773163,43.0697476 360.837475,43.0697476 L337.929549,43.0697476 Z M376.38869,62.5881654 C376.38869,73.0250021 371.225029,78.2023521 360.837475,78.2023521 L340.897422,78.2023521 C330.507129,78.2023521 325.346207,73.0250021 325.346207,62.5881654 L325.346207,12.8762967 L337.929549,12.8762967 L337.929549,30.7218637 L360.837475,30.7218637 C371.225029,30.7218637 376.38869,35.9019516 376.38869,46.3387883 L376.38869,62.5881654 Z" id="Shape" fill="#ED1B2E" fill-rule="nonzero"></path>
                <path d="M399.674444,43.0697476 C397.738756,43.0697476 396.769543,44.1868067 396.769543,46.494848 L396.769543,49.7638886 L417.032667,49.7638886 C418.648022,49.7638886 419.485816,48.5674307 419.485816,46.2566516 C419.485816,44.10467 418.648022,43.0697476 417.032667,43.0697476 L399.674444,43.0697476 Z M432.13213,48.5674307 C432.13213,55.6585658 428.906896,58.9248686 422.196327,58.9248686 L396.769543,58.9248686 L396.769543,61.950237 C396.769543,64.0228198 397.738756,65.0604801 399.674444,65.0604801 L431.488726,65.0604801 L431.488726,78.2023521 L398.579288,78.2023521 C388.963819,78.2023521 384.123229,73.4219961 384.123229,63.7846233 L384.123229,43.9486103 C384.123229,35.1024877 388.963819,30.7218637 398.579288,30.7218637 L422.196327,30.7218637 C428.841186,30.7218637 432.13213,34.3878984 432.13213,41.7966287 L432.13213,48.5674307 Z" id="Shape" fill="#ED1B2E" fill-rule="nonzero"></path>
                <path d="M455.357651,43.0697476 C453.421963,43.0697476 452.45275,44.10467 452.45275,46.1772527 L452.45275,61.8735761 C452.45275,64.0228198 453.421963,65.0604801 455.357651,65.0604801 L475.297704,65.0604801 C477.296364,65.0604801 478.262839,64.0228198 478.262839,61.8735761 L478.262839,43.0697476 L455.357651,43.0697476 Z M490.848919,62.5881654 C490.848919,73.0250021 485.685259,78.2023521 475.297704,78.2023521 L455.357651,78.2023521 C444.967359,78.2023521 439.806436,73.0250021 439.806436,62.5881654 L439.806436,46.3387883 C439.806436,35.9019516 444.967359,30.7218637 455.357651,30.7218637 L478.262839,30.7218637 L478.262839,12.8762967 L490.848919,12.8762967 L490.848919,62.5881654 Z" id="Shape" fill="#ED1B2E" fill-rule="nonzero"></path>
                <path d="M514.134674,43.0697476 C512.198985,43.0697476 511.23251,44.10467 511.23251,46.1772527 L511.23251,61.8735761 C511.23251,64.0228198 512.198985,65.0604801 514.134674,65.0604801 L534.074727,65.0604801 C536.076124,65.0604801 537.042599,64.0228198 537.042599,61.8735761 L537.042599,43.0697476 L514.134674,43.0697476 Z M549.625942,62.5881654 C549.625942,73.0250021 544.465019,78.2023521 534.074727,78.2023521 L514.134674,78.2023521 C503.747119,78.2023521 498.583458,73.0250021 498.583458,62.5881654 L498.583458,46.3387883 C498.583458,35.9019516 503.747119,30.7218637 514.134674,30.7218637 L537.042599,30.7218637 L537.042599,12.8762967 L549.625942,12.8762967 L549.625942,62.5881654 Z" id="Shape" fill="#ED1B2E" fill-rule="nonzero"></path>
                <path d="M572.914434,43.0697476 C570.976008,43.0697476 570.009533,44.1868067 570.009533,46.494848 L570.009533,49.7638886 L590.272657,49.7638886 C591.885274,49.7638886 592.723068,48.5674307 592.723068,46.2566516 C592.723068,44.10467 591.885274,43.0697476 590.272657,43.0697476 L572.914434,43.0697476 Z M605.37212,48.5674307 C605.37212,55.6585658 602.146886,58.9248686 595.433579,58.9248686 L570.009533,58.9248686 L570.009533,61.950237 C570.009533,64.0228198 570.976008,65.0604801 572.914434,65.0604801 L604.725978,65.0604801 L604.725978,78.2023521 L571.81654,78.2023521 C562.20107,78.2023521 557.363219,73.4219961 557.363219,63.7846233 L557.363219,43.9486103 C557.363219,35.1024877 562.20107,30.7218637 571.81654,30.7218637 L595.433579,30.7218637 C602.081176,30.7218637 605.37212,34.3878984 605.37212,41.7966287 L605.37212,48.5674307 Z" id="Shape" fill="#ED1B2E" fill-rule="nonzero"></path>
                <path d="M628.597641,43.0697476 C626.659215,43.0697476 625.69274,44.10467 625.69274,46.1772527 L625.69274,61.8735761 C625.69274,64.0228198 626.659215,65.0604801 628.597641,65.0604801 L648.534956,65.0604801 C650.536353,65.0604801 651.502829,64.0228198 651.502829,61.8735761 L651.502829,43.0697476 L628.597641,43.0697476 Z M664.086171,62.5881654 C664.086171,73.0250021 658.925248,78.2023521 648.534956,78.2023521 L628.597641,78.2023521 C618.207348,78.2023521 613.046426,73.0250021 613.046426,62.5881654 L613.046426,46.3387883 C613.046426,35.9019516 618.207348,30.7218637 628.597641,30.7218637 L651.502829,30.7218637 L651.502829,12.8762967 L664.086171,12.8762967 L664.086171,62.5881654 Z" id="Shape" fill="#ED1B2E" fill-rule="nonzero"></path>
                <path d="M746.165375,70.4760265 C745.196162,75.3385191 742.16258,78.2023521 738.548565,78.2023521 L729.387585,78.2023521 C725.064457,78.2023521 721.319024,75.018186 720.095187,70.5554253 L712.670029,43.0697476 L710.090937,43.0697476 L702.671255,70.5554253 C701.44468,75.018186 697.764956,78.2023521 693.441828,78.2023521 L684.280848,78.2023521 C680.666833,78.2023521 677.633251,75.3385191 676.664038,70.4760265 L668.792604,30.7218637 L682.345159,30.7218637 L686.991359,61.950237 C687.31443,64.0228198 688.089253,65.0604801 689.31309,65.0604801 L690.671083,65.0604801 C691.763501,65.0604801 692.604033,64.0228198 693.184466,62.0296358 L701.896432,30.7218637 L720.867272,30.7218637 L729.644947,62.0296358 C730.222642,64.0228198 731.063174,65.0604801 732.161068,65.0604801 L733.516324,65.0604801 C734.742898,65.0604801 735.517721,64.0228198 735.840792,61.950237 L740.355573,30.7218637 L753.908128,30.7218637 L746.165375,70.4760265 Z" id="Path" fill="#231F20" fill-rule="nonzero"></path>
                <path d="M772.736598,43.0697476 C770.803647,43.0697476 769.834434,44.10467 769.834434,46.1772527 L769.834434,61.8735761 C769.834434,64.0228198 770.803647,65.0604801 772.736598,65.0604801 L792.676651,65.0604801 C794.67531,65.0604801 795.644523,64.0228198 795.644523,62.0296358 L795.644523,46.1772527 C795.644523,44.10467 794.67531,43.0697476 792.676651,43.0697476 L772.736598,43.0697476 Z M808.230604,62.7497009 C808.230604,73.0250021 803.066943,78.2023521 792.676651,78.2023521 L772.736598,78.2023521 C762.349043,78.2023521 757.185383,73.0250021 757.185383,62.5881654 L757.185383,46.3387883 C757.185383,35.9019516 762.349043,30.7218637 772.736598,30.7218637 L792.676651,30.7218637 C803.066943,30.7218637 808.230604,35.9019516 808.230604,46.3387883 L808.230604,62.7497009 Z" id="Shape" fill="#231F20" fill-rule="nonzero"></path>
                <path d="M848.228439,43.0697476 L831.516358,43.0697476 C829.577932,43.0697476 828.611457,44.10467 828.611457,46.1772527 L828.611457,78.2023521 L815.965143,78.2023521 L815.965143,46.3387883 C815.965143,35.9019516 821.128804,30.7218637 831.516358,30.7218637 L848.228439,30.7218637 L848.228439,43.0697476 Z" id="Path" fill="#231F20" fill-rule="nonzero"></path>
                <rect id="Rectangle" fill="#231F20" fill-rule="nonzero" x="853.967056" y="12.8762967" width="12.5833424" height="65.3260554"></rect>
                <path d="M889.778657,43.0697476 C887.842969,43.0697476 886.873756,44.10467 886.873756,46.1772527 L886.873756,61.8735761 C886.873756,64.0228198 887.842969,65.0604801 889.778657,65.0604801 L909.71871,65.0604801 C911.714632,65.0604801 912.686583,64.0228198 912.686583,61.8735761 L912.686583,43.0697476 L889.778657,43.0697476 Z M925.269925,62.5881654 C925.269925,73.0250021 920.109003,78.2023521 909.71871,78.2023521 L889.778657,78.2023521 C879.388365,78.2023521 874.227442,73.0250021 874.227442,62.5881654 L874.227442,46.3387883 C874.227442,35.9019516 879.388365,30.7218637 889.778657,30.7218637 L912.686583,30.7218637 L912.686583,12.8762967 L925.269925,12.8762967 L925.269925,62.5881654 Z" id="Shape" fill="#231F20" fill-rule="nonzero"></path>
                <path d="M142.879528,24.6546995 C146.285463,25.6595051 149.119179,30.4042685 149.18215,35.2065275 L149.891264,90.5967801 C149.951497,95.3990392 147.219083,98.5038064 143.815886,97.5017387 L104.510737,85.9149882 C101.099326,84.9047068 98.2601342,80.1654192 98.1999006,75.3604222 L97.4907871,19.9674318 C97.4278156,15.1679106 100.162968,12.0604055 103.574379,13.067949 L142.879528,24.6546995 Z" id="Path" fill="#EF3F44" fill-rule="nonzero"></path>
                <path d="M143.815886,97.5017387 L104.510737,85.9149882 C103.048704,85.4878774 101.696186,84.3653425 100.620195,82.8622409 C100.149278,82.1996715 99.7303811,81.4522275 99.3799312,80.669191 L46.6645972,96.9432091 C47.017785,97.7317214 47.4339442,98.4682139 47.9048613,99.1280453 C48.98359,100.647574 50.3361077,101.759158 51.7926651,102.186268 L91.1032897,113.778495 C91.9547735,114.033119 92.7679269,114.022167 93.5044193,113.794922 L146.219753,97.5209039 C145.483261,97.7454109 144.670108,97.7536246 143.815886,97.5017387 Z" id="Path" fill="#ED1B2E" fill-rule="nonzero"></path>
                <path d="M98.465476,15.4526512 C98.8104501,14.8065091 99.2402988,14.2671448 99.7276432,13.8482476 C100.162968,13.4813704 100.642099,13.2103192 101.165036,13.0487837 L48.4497014,29.320064 C47.9322402,29.4815995 47.4476337,29.7581264 47.0150471,30.1222658 C46.5249648,30.5384251 46.0978539,31.0777894 45.7501419,31.7239314 C45.1149514,32.9203894 44.7535499,34.4618214 44.7754531,36.2441878 L45.4873045,91.7850244 L45.498256,91.7795486 C45.5174213,92.6228187 45.6159853,93.4578752 45.7912103,94.2682906 C45.9938141,95.1964353 46.2922441,96.1026769 46.6645972,96.9432091 L99.3799312,80.669191 C99.0048403,79.8259208 98.7064103,78.925155 98.5038064,77.9860588 C98.3176299,77.1290992 98.2108522,76.2474986 98.1999006,75.3604223 L98.1971627,75.3604223 L97.4907871,19.9674318 C97.468884,18.1905412 97.8248097,16.6436333 98.465476,15.4526512 Z" id="Path" fill="#DA2031" fill-rule="nonzero"></path>
                <polygon id="Path" fill="#607FB4" fill-rule="nonzero" points="92.2230868 9.25954398 92.2230868 11.6004399 69.5150271 18.5409911 69.5150271 16.202833"></polygon>
                <g id="Clipped" transform="translate(14.688780, 15.373252)">
                    <mask id="mask-2" fill="white">
                        <use xlink:href="#path-1"></use>
                    </mask>
                    <g id="Path"></g>
                    <path d="M45.7063357,0 C45.0519799,0 44.3948863,0.01368945 43.7405306,0.03833046 C29.1037707,0.6297147 17.0050348,7.62502365 9.27323343,18.4725438 C7.23898116,21.3254252 5.50589679,24.4466198 4.10957289,27.7868456 C2.75979312,30.9983906 1.72760859,34.4070636 1.03492242,37.982748 C0.35318781,41.492723 0,45.1614955 0,48.9425216 L0,51.2752039 C0,47.4969157 0.35318781,43.8363568 1.03492242,40.3291197 C1.72760859,36.7506975 2.75979312,33.3392865 4.10957289,30.1222658 C5.50589679,26.78204 7.23898116,23.6608454 9.27323343,20.8134398 C17.0050348,9.9659196 29.1037707,2.96787276 43.7405306,2.37922641 C44.3948863,2.3545854 45.0519799,2.34089595 45.7063357,2.34089595 C48.7672967,2.34089595 51.8173061,2.62563651 54.8262472,3.16773873 L54.8262472,0.82958067 C51.8173061,0.28474056 48.7672967,0 45.7063357,0 Z" id="Path" fill="#4971AA" fill-rule="nonzero" mask="url(#mask-2)"></path>
                </g>
                <path d="M113.616959,113.077595 L133.915676,106.884488 C126.468615,129.923832 107.152801,146.088335 81.8108911,147.098616 C80.9566694,147.128733 80.1079235,147.14516 79.2564397,147.14516 C42.9821351,147.14516 8.39710863,115.963331 1.29228408,76.2803533 C-5.99050332,35.6555415 18.2562505,1.53869418 55.4504862,0.04928202 C56.3047078,0.01368945 57.1561916,0 58.0076754,0 C69.8983317,0 81.6028114,3.34843947 92.2230868,9.25954398 L69.5150271,16.202833 C66.506086,15.6579929 63.4560765,15.3732523 60.3951155,15.3732523 C59.7407598,15.3732523 59.0836662,15.3869418 58.4293105,15.4115828 C29.0900812,16.5916134 9.96865749,43.5269752 15.704537,75.5520746 C21.3144736,106.876274 48.6030233,131.473478 77.2304011,131.473478 C77.8957084,131.473478 78.5637535,131.462526 79.2263229,131.437885 C93.8247524,130.841025 105.890634,123.875833 113.616959,113.077595 Z" id="Path" fill="#074EA2" fill-rule="nonzero"></path>
                <path d="M0,64.3623181 L0,62.0159464 C0,66.6484563 0.41615928,71.4233364 1.29228408,76.2803533 C8.39710863,115.963331 42.9821351,147.14516 79.2564397,147.14516 C80.1079235,147.14516 80.9566694,147.128733 81.8108911,147.098616 C107.152801,146.088335 126.468615,129.923832 133.915676,106.884488 L133.915676,109.21717 C126.468615,132.267466 107.152801,148.423755 81.8108911,149.44225 C80.9566694,149.472367 80.1079235,149.491532 79.2564397,149.491532 C42.9821351,149.491532 8.39710863,118.304227 1.29228408,78.6212492 C0.41615928,73.7560187 0,68.9893522 0,64.3623181 Z" id="Path" fill="#4971AA" fill-rule="nonzero"></path>
                <g id="Clipped" transform="translate(0.000000, 62.015946)">
                    <mask id="mask-4" fill="white">
                        <use xlink:href="#path-3"></use>
                    </mask>
                    <g id="Path"></g>
                    <path d="M132.042959,49.9254242 C130.266068,54.1691537 128.064805,58.1308805 125.477499,61.7558468 C115.675853,75.4863652 100.357358,84.3461772 81.8108911,85.0826696 C80.9566694,85.1127864 80.1079235,85.1292138 79.2564397,85.1292138 C42.9821351,85.1292138 8.39710863,53.9473846 1.29228408,14.2644069 C0.41615928,9.40739004 0,4.63250988 0,9.72693925e-15 L0,2.34637173 C0,6.97340583 0.41615928,11.7400723 1.29228408,16.6053029 C8.39710863,56.2882805 42.9821351,87.4755855 79.2564397,87.4755855 C80.1079235,87.4755855 80.9566694,87.4564203 81.8108911,87.4263035 C100.357358,86.6815974 115.675853,77.8245233 125.477499,64.0967428 C128.064805,60.4690385 130.266068,56.5100496 132.042959,52.2663201 C132.730169,50.6181103 133.357146,48.9288322 133.915676,47.2012236 L133.915676,44.8685413 C133.357146,46.5906741 132.730169,48.2826902 132.042959,49.9254242 Z" id="Path" fill="#4971AA" fill-rule="nonzero" mask="url(#mask-4)"></path>
                </g>
            </g>
        </g>
    </g>
</svg>